<?xml version="1.0" standalone="no"?>
<!DOCTYPE svg PUBLIC "-//W3C//DTD SVG 20010904//EN"
 "http://www.w3.org/TR/2001/REC-SVG-20010904/DTD/svg10.dtd">
<svg version="1.0" xmlns="http://www.w3.org/2000/svg"
 width="123.000000pt" height="123.000000pt" viewBox="0 0 123.000000 123.000000"
 preserveAspectRatio="xMidYMid meet">
<metadata>
Created by potrace 1.11, written by Peter Selinger 2001-2013
</metadata>
<g transform="translate(0.000000,123.000000) scale(0.100000,-0.100000)"
fill="#000000" stroke="none">
<path d="M34 1109 c-10 -17 13 -36 27 -22 12 12 4 33 -11 33 -5 0 -12 -5 -16
-11z"/>
<path d="M119 1113 c-1 -5 -1 -11 0 -15 0 -5 -10 -8 -23 -8 -38 0 -42 -20 -4
-21 l33 -1 -29 -13 c-25 -10 -32 -10 -44 2 -10 9 -18 11 -24 5 -18 -18 2 -31
46 -29 41 2 43 1 29 -15 -21 -23 -8 -38 34 -38 32 0 35 2 31 25 -4 21 -1 25
18 25 34 0 39 18 7 26 -45 10 -50 12 -20 13 37 1 35 21 -3 21 -20 0 -30 5 -30
15 0 15 -19 22 -21 8z m26 -103 c3 -5 -1 -10 -10 -10 -9 0 -13 5 -10 10 3 6 8
10 10 10 2 0 7 -4 10 -10z"/>
<path d="M785 1086 c-8 -12 -19 -13 -62 -3 -82 17 -214 -20 -229 -65 -3 -10
-9 -18 -14 -18 -14 0 -132 -123 -141 -147 -5 -13 -15 -23 -24 -23 -12 0 -14
-6 -9 -26 6 -25 5 -26 -23 -20 -21 5 -34 2 -43 -9 -16 -19 -3 -48 23 -53 31
-6 134 71 243 184 81 83 116 113 128 108 25 -10 19 -35 -19 -83 -37 -47 -44
-71 -20 -71 8 0 42 -18 75 -39 109 -71 253 -121 346 -121 40 0 44 -17 12 -47
-69 -63 -129 -68 -190 -16 -23 20 -72 49 -108 66 -36 16 -87 45 -114 64 -62
44 -102 47 -148 10 -89 -72 -169 -119 -192 -113 -17 4 -26 1 -30 -10 -10 -25
-7 -83 5 -105 5 -11 17 -53 24 -94 22 -114 78 -205 147 -241 16 -8 37 -23 47
-33 28 -28 173 -63 227 -55 l45 6 -3 60 -3 60 -38 3 c-41 2 -79 29 -70 51 3 9
21 14 54 14 l49 0 0 74 0 75 -72 0 c-40 0 -91 2 -113 3 -22 1 -48 -2 -57 -6
-14 -6 -18 -4 -18 12 0 34 23 41 146 44 106 3 119 5 122 21 2 10 -4 24 -14 31
-20 15 -11 36 15 36 23 0 41 -20 41 -46 0 -39 21 -45 149 -43 67 1 123 0 126
-3 3 -2 -1 -12 -8 -22 -10 -14 -31 -18 -107 -20 -93 -2 -139 -15 -141 -39 -2
-29 3 -122 7 -126 2 -2 16 1 31 8 21 10 28 9 35 -1 9 -14 -25 -48 -48 -48 -10
0 -14 -15 -14 -56 0 -50 2 -55 18 -49 9 4 39 16 66 27 27 11 60 27 72 37 l23
18 -79 78 c-44 43 -77 82 -74 87 7 11 59 -12 121 -55 82 -55 104 -56 152 -7
22 23 46 54 53 71 7 16 18 29 25 29 12 0 27 64 38 163 5 48 3 63 -14 91 -13
21 -21 50 -21 79 0 63 -6 74 -54 95 -22 11 -60 38 -83 60 -52 51 -124 102
-191 136 -60 30 -64 31 -77 12z m-75 -657 c0 -20 -68 -77 -136 -115 -104 -58
-204 -70 -204 -24 0 26 12 31 90 40 59 6 79 15 146 59 78 51 104 61 104 40z"/>
<path d="M32 994 c4 -21 22 -23 26 -1 2 10 -3 17 -13 17 -10 0 -15 -6 -13 -16z"/>
<path d="M131 923 c-6 -10 -11 -12 -11 -5 0 8 -16 12 -43 12 -37 0 -46 -4 -55
-25 -17 -36 -16 -38 15 -32 26 5 26 4 8 -9 -10 -8 -25 -14 -32 -14 -7 0 -13
-5 -13 -11 0 -7 11 -9 30 -5 25 4 30 2 30 -13 0 -29 11 -52 21 -45 5 3 7 21 3
40 -5 29 -4 34 13 34 29 0 35 -11 16 -32 -28 -31 -6 -32 34 -3 29 22 33 23 19
7 -11 -12 -16 -25 -12 -29 10 -10 39 10 51 35 5 12 13 22 17 22 16 0 7 19 -12
25 -23 7 -27 25 -5 25 8 0 15 5 15 10 0 6 -13 10 -30 10 -16 0 -30 5 -30 10 0
16 -18 11 -29 -7z m19 -37 c0 -11 -19 -15 -25 -6 -3 5 1 10 9 10 9 0 16 -2 16
-4z"/>
<path d="M77 734 c-15 -15 -7 -44 13 -44 31 0 23 -17 -10 -22 -16 -3 -30 0
-30 5 0 5 -6 7 -12 5 -7 -3 -13 -11 -13 -19 0 -10 12 -13 45 -11 36 3 43 1 33
-9 -19 -19 -16 -37 7 -44 29 -9 62 12 55 36 -5 15 -2 19 14 19 33 0 25 17 -11
25 -31 7 -31 8 -10 14 34 9 22 27 -16 23 -23 -3 -37 2 -46 13 -6 9 -15 13 -19
9z m63 -104 c0 -5 -5 -10 -11 -10 -5 0 -7 5 -4 10 3 6 8 10 11 10 2 0 4 -4 4
-10z"/>
<path d="M25 721 c-8 -15 3 -31 21 -31 9 0 14 7 12 17 -4 20 -24 28 -33 14z"/>
<path d="M27 623 c-4 -3 -7 -12 -7 -20 0 -17 26 -17 33 1 8 21 -11 35 -26 19z"/>
<path d="M53 514 c-46 -62 -43 -87 4 -42 21 19 24 20 40 6 28 -24 83 -49 93
-43 17 10 11 23 -12 31 -38 11 -91 51 -79 59 6 3 11 13 11 21 0 27 -25 13 -57
-32z"/>
</g>
</svg>
